<?xml version="1.0" encoding="utf-8"?>
<!-- Generator: Adobe Illustrator 22.1.0, SVG Export Plug-In . SVG Version: 6.00 Build 0)  -->
<svg version="1.1" xmlns="http://www.w3.org/2000/svg" xmlns:xlink="http://www.w3.org/1999/xlink" x="0px" y="0px"
	 viewBox="0 0 200 200" style="enable-background:new 0 0 200 200;" xml:space="preserve">
<g id="레이어_8">
	<path d="M206.4,181v10.6h-53.2c-26.1,0-39.8-6.6-53-13.2s-26.4-12.9-53.5-12.9H-6.4v-10.6h53.2c22.6,0,36.5,4.1,47.9,9.1
		c2,1,4.3,1.8,6.1,2.8l4.1,2c12.7,6.1,24.6,12.2,48.2,12.2C153,181,206.4,181,206.4,181z"/>
</g>
<g id="레이어_7">
	<rect x="68.1" y="128.2" width="10.6" height="10.6"/>
</g>
<g id="레이어_6">
	<rect x="174.5" y="75" width="10.6" height="10.6"/>
</g>
<g id="레이어_5">
	<rect x="121.3" y="75" width="10.6" height="10.6"/>
</g>
<g id="레이어_4">
	<rect x="14.8" y="75" width="10.6" height="10.6"/>
</g>
<g id="레이어_3">
	<rect x="174.5" y="23.3" width="10.6" height="10.6"/>
</g>
<g id="레이어_2">
	<rect x="68.1" y="23.3" width="10.6" height="10.6"/>
</g>
<g id="레이어_1">
	<rect x="14.8" y="23.3" width="10.6" height="10.6"/>
</g>
<g id="기본">
	<path d="M149.4,103.4l7.6,7.6l-53.2,53.2c-3-1.5-6.1-3-9.1-4.3v-50.7L43,57.5l7.6-7.6L94.7,94V0h10.6v41.1L146.4,0h15l-56,56v91.5
		L149.4,103.4z"/>
</g>
</svg>
