<?xml version="1.0" encoding="utf-8"?>
<!-- Generator: Adobe Illustrator 22.1.0, SVG Export Plug-In . SVG Version: 6.00 Build 0)  -->
<svg version="1.1" id="레이어_1" xmlns="http://www.w3.org/2000/svg" xmlns:xlink="http://www.w3.org/1999/xlink" x="0px"
	 y="0px" viewBox="0 0 84 84" style="enable-background:new 0 0 84 84;" xml:space="preserve">
<style type="text/css">
	.st0{fill:none;}
</style>
<symbol  id="새_심볼_6" viewBox="-40 -40 80 80">
	<path class="st0" d="M40,40h-80v-80h80V40z"/>
</symbol>
<title>q01-2</title>
<g id="레이어_2_1_">
	<g id="레이어_1-2">
		
			<use xlink:href="#새_심볼_6"  width="80" height="80" id="새_심볼_6-3" x="-40" y="-40" transform="matrix(1.0499 0 0 1.0499 42 41.9953)" style="overflow:visible;"/>
		<path d="M81.9,21c0,9-18.7,18.2-37.8,18.9V0h-4.2v29.2c-4.5-6.3-12-10.3-18.9-10.3v4.2c8.3,0,17.6,7,18.8,16.8
			C20.8,39.2,2.1,30,2.1,21h-4.2c0,12.8,21.7,22.4,42,23.1V84h4.2V63c0-8.7,8.3-18.9,18.9-18.9v-3.1C75.9,37,86.1,29.7,86.1,21H81.9
			z M44.1,50.4v-6.3c2.3-0.1,4.7-0.3,7-0.6C48.3,45.3,46,47.7,44.1,50.4z"/>
		<rect x="29.4" y="8.4" width="4.2" height="4.2"/>
		<rect x="8.4" y="8.4" width="4.2" height="4.2"/>
		<rect x="50.4" y="8.4" width="4.2" height="4.2"/>
		<rect x="71.4" y="8.4" width="4.2" height="4.2"/>
		<rect x="29.4" y="29.4" width="4.2" height="4.2"/>
		<rect x="8.4" y="29.4" width="4.2" height="4.2"/>
		<rect x="50.4" y="29.4" width="4.2" height="4.2"/>
		<rect x="71.4" y="29.4" width="4.2" height="4.2"/>
	</g>
</g>
</svg>
