<svg xmlns="http://www.w3.org/2000/svg" xmlns:xlink="http://www.w3.org/1999/xlink" viewBox="0 0 84 84"><defs><style>.cls-1{fill:none;}</style><symbol id="새_심볼_10" data-name="새 심볼 10" viewBox="0 0 84 84"><rect class="cls-1" width="84" height="84"/></symbol></defs><title>q02-3</title><g id="레이어_2" data-name="레이어 2"><g id="레이어_1-2" data-name="레이어 1"><use id="새_심볼_10-3" data-name="새 심볼 10" width="84" height="84" transform="translate(0 0)" xlink:href="#새_심볼_10"/><rect x="70" y="47" width="4" height="10"/><rect x="50" y="47" width="4" height="10"/><rect x="60" y="67" width="4" height="10"/><rect x="40" y="67" width="4" height="10"/><rect x="30" y="47" width="4" height="10"/><path d="M80,0V2c0,.74-.21,18-18,18H0v4H39.85C39.28,28.71,36.39,40,22,40H0v4H22c17.8,0,21.2-14.58,21.85-20H62C83.75,24,84,2.22,84,2V0Z"/></g></g></svg>