<?xml version="1.0" encoding="utf-8"?>
<!-- Generator: Adobe Illustrator 22.1.0, SVG Export Plug-In . SVG Version: 6.00 Build 0)  -->
<svg version="1.1" id="레이어_1" xmlns="http://www.w3.org/2000/svg" xmlns:xlink="http://www.w3.org/1999/xlink" x="0px"
	 y="0px" viewBox="0 0 200 200" style="enable-background:new 0 0 200 200;" xml:space="preserve">
<style type="text/css">
	.st0{fill:none;}
</style>
<symbol  id="새_심볼_10" viewBox="-42 -42 84 84">
	<rect x="-42" y="-42" class="st0" width="84" height="84"/>
</symbol>
<title>q03-4</title>
<use xlink:href="#새_심볼_10"  width="84" height="84" id="새_심볼_10-3" x="-42" y="-42" transform="matrix(2.381 0 0 2.381 100 100)" style="overflow:visible;"/>
<path d="M150,165.2c-10.8,0-15.9-4.1-21.9-8.9c-6.5-5.2-13.9-11.1-28.1-11.1s-21.6,5.9-28.1,11.1c-6,4.8-11.1,8.9-21.9,8.9
	s-15.9-4.1-21.9-8.9c-6.5-5.2-13.9-11.1-28.1-11.1v10c10.8,0,15.9,4.1,21.9,8.9c6.5,5.2,13.9,11.1,28.1,11.1s21.6-5.9,28.1-11.1
	c6-4.8,11.1-8.9,21.9-8.9s15.9,4.1,21.9,8.9c6.5,5.2,13.9,11.1,28.1,11.1s21.6-5.9,28.1-11.1c6-4.8,11.1-8.9,21.9-8.9v-10
	c-14.3,0-21.6,5.9-28.1,11.1C165.9,161.1,160.8,165.2,150,165.2z"/>
<rect y="45.1" width="50" height="10"/>
<rect x="116.7" y="30" width="33.3" height="10"/>
<rect x="124.8" y="16.2" width="17.1" height="10"/>
<path d="M154.4,95.2l-7-50h-28l-7,50H100c-30.4,0-55,24.6-55,55h10c0-24.9,20.1-45,45-45h100v-10H154.4z M128,55.2h10.6l5.6,40
	h-21.8L128,55.2z"/>
</svg>
