<?xml version="1.0" encoding="utf-8"?>
<!-- Generator: Adobe Illustrator 22.1.0, SVG Export Plug-In . SVG Version: 6.00 Build 0)  -->
<svg version="1.1" id="레이어_1" xmlns="http://www.w3.org/2000/svg" xmlns:xlink="http://www.w3.org/1999/xlink" x="0px"
	 y="0px" viewBox="0 0 200 200" style="enable-background:new 0 0 200 200;" xml:space="preserve">
<style type="text/css">
	.st0{fill:none;}
</style>
<symbol  id="새_심볼_10" viewBox="-42 -42 84 84">
	<rect x="-42" y="-42" class="st0" width="84" height="84"/>
</symbol>
<use xlink:href="#새_심볼_10"  width="84" height="84" id="새_심볼_10-3" x="-42" y="-42" transform="matrix(2.381 0 0 2.381 100 100)" style="overflow:visible;"/>
<path d="M200,144.7h-28.3V44.8h-29.2V21.1h-85v23.7H28.3v99.9H0v10h28.3v8h29.2v8.7h85v-8.7h29.2v-8H200V144.7z M38.3,152.7V54.8
	h19.2v97.9H38.3z M86.3,161.4v-30.2h8v30.2H86.3z M132.5,161.4h-28.2v-40.2h-28v40.2h-8.8V31.1h65V161.4z M161.7,152.7h-19.2V54.8
	h19.2V152.7z"/>
<polygon points="97.1,60.7 104.4,60.7 104.4,51.9 113.3,51.9 113.3,44.6 104.4,44.6 104.4,35.7 97.1,35.7 97.1,44.6 88.3,44.6 
	88.3,51.9 97.1,51.9 "/>
<rect x="75" y="73.9" width="50" height="10"/>
<rect x="75" y="92" width="50" height="10"/>
</svg>
