<?xml version="1.0" encoding="utf-8"?>
<!-- Generator: Adobe Illustrator 22.1.0, SVG Export Plug-In . SVG Version: 6.00 Build 0)  -->
<svg version="1.1" id="레이어_1" xmlns="http://www.w3.org/2000/svg" xmlns:xlink="http://www.w3.org/1999/xlink" x="0px"
	 y="0px" viewBox="0 0 200 200" style="enable-background:new 0 0 200 200;" xml:space="preserve">
<style type="text/css">
	.st0{fill:none;}
</style>
<symbol  id="새_심볼_10" viewBox="-42 -42 84 84">
	<rect x="-42" y="-42" class="st0" width="84" height="84"/>
</symbol>
<use xlink:href="#새_심볼_10"  width="84" height="84" id="새_심볼_10-3" x="-42" y="-42" transform="matrix(2.381 0 0 2.381 100 100)" style="overflow:visible;"/>
<rect x="37.5" y="95.8" width="100" height="10"/>
<rect x="37.5" y="112.3" width="100" height="10"/>
<path d="M155,88.3c21-2.8,35.8-22,33-43s-22-35.8-43-33s-35.8,22-33,43c2.3,17.2,15.8,30.7,33,33v57h-15v-11.5h-10v11.5H55v-11.5H45
	v11.5H0v10h200v-10h-45V88.3z M121.7,50.3c0-15.6,12.7-28.3,28.3-28.3c15.6,0,28.3,12.7,28.3,28.3c0,15.6-12.7,28.3-28.3,28.3
	C134.4,78.6,121.7,66,121.7,50.3z"/>
<rect y="45.3" width="50" height="10"/>
<rect x="175" y="95.3" width="25" height="10"/>
</svg>
