<?xml version="1.0" encoding="utf-8"?>
<!-- Generator: Adobe Illustrator 22.1.0, SVG Export Plug-In . SVG Version: 6.00 Build 0)  -->
<svg version="1.1" id="레이어_1" xmlns="http://www.w3.org/2000/svg" xmlns:xlink="http://www.w3.org/1999/xlink" x="0px"
	 y="0px" viewBox="0 0 84 84" style="enable-background:new 0 0 84 84;" xml:space="preserve">
<title>q04-3-line</title>
<g id="레이어_2_1_">
	<g id="레이어_1-2">
		<path d="M64,69H27c-3.9,0-7-3.1-7-7v-2h4v2c0,1.7,1.3,3,3,3h37V69z"/>
		<path d="M24,62h-4V27c0-3.9,3.1-7,7-7h37v39H27C25.3,59,24,60.3,24,62z M27,24c-1.7,0-3,1.3-3,3v28.7c0.9-0.4,2-0.7,3-0.7h33V24
			H27z"/>
		<rect x="32.2" y="40" width="19.7" height="4"/>
		<rect x="32.2" y="34" width="19.7" height="4"/>
	</g>
</g>
</svg>
