<?xml version="1.0" encoding="utf-8"?>
<!-- Generator: Adobe Illustrator 22.1.0, SVG Export Plug-In . SVG Version: 6.00 Build 0)  -->
<svg version="1.1" id="레이어_1" xmlns="http://www.w3.org/2000/svg" xmlns:xlink="http://www.w3.org/1999/xlink" x="0px"
	 y="0px" viewBox="0 0 84 84" style="enable-background:new 0 0 84 84;" xml:space="preserve">
<style type="text/css">
	.st0{fill:#FFFFFF;stroke:#000000;stroke-width:2;stroke-miterlimit:10;}
	.st1{fill:none;stroke:#000000;stroke-width:4;stroke-miterlimit:10;}
</style>
<path class="st0" d="M9,42.2"/>
<polygon points="64,64 0,64 0,60 60,60 60,44 22,44 22,40 64,40 "/>
<rect x="20" y="50" width="4" height="4"/>
<rect x="30.2" y="50" width="4" height="4"/>
<rect x="40" y="50" width="4" height="4"/>
<path class="st1" d="M22,32.5"/>
<polygon points="84,54 62.4,54 62.4,50 80,50 80,34 34,34 34,42.2 30,42.2 30,30 84,30 "/>
<polygon points="62,44 0,44 0,20 64,20 64,32 60,32 60,24 4,24 4,40 62,40 "/>
</svg>
