<?xml version="1.0" encoding="utf-8"?>
<!-- Generator: Adobe Illustrator 22.1.0, SVG Export Plug-In . SVG Version: 6.00 Build 0)  -->
<svg version="1.1" id="레이어_1" xmlns="http://www.w3.org/2000/svg" xmlns:xlink="http://www.w3.org/1999/xlink" x="0px"
	 y="0px" viewBox="0 0 200 200" style="enable-background:new 0 0 200 200;" xml:space="preserve">
<style type="text/css">
	.st0{fill:none;}
</style>
<symbol  id="새_심볼_10" viewBox="-42 -42 84 84">
	<rect x="-42" y="-42" class="st0" width="84" height="84"/>
</symbol>
<title>q04-4</title>
<g id="레이어_2_1_">
	<g id="레이어_1-2">
		
			<use xlink:href="#새_심볼_10"  width="84" height="84" id="새_심볼_10-3" x="-42" y="-42" transform="matrix(2.381 0 0 2.381 100 100)" style="overflow:visible;"/>
		<path d="M149.7,89.1c-8.6,0-24.5-1.7-25.2-1.8l-4.2-0.5V48.1l4.2-0.5c0.8,0,18.8-1.8,25.2-1.8c11.3,0,25,9.7,25,21.6
			S161,89.1,149.7,89.1z M129.7,78.2c5.3,0.5,14.5,1.3,20,1.3c6.5,0,15.5-6.1,15.5-12.1s-9-12.1-15.5-12.1c-4.2,0-14.3,0.9-20,1.4
			L129.7,78.2z"/>
		<path d="M116.5,87.3h-13.2c-11-0.4-19.5-9.6-19.2-20.5c0.4-10.4,8.7-18.8,19.2-19.2h13.2V87.3z M103.3,57.1
			c-5.7,0.3-10.1,5.1-9.8,10.8c0.3,5.3,4.5,9.6,9.8,9.8h3.7V57.1H103.3z"/>
		<path d="M102,154.2c-8.6,0-24.5-1.8-25.2-1.8l-4.2-0.5l-0.1-38.7l4.3-0.4c0.8,0,18.8-1.8,25.3-1.8c11.3,0,25,9.6,25,21.6
			S113.3,154.2,102,154.2z M82,143.3c5.3,0.5,14.5,1.3,20,1.3c6.5,0,15.4-6.1,15.4-12.1s-9-12.1-15.4-12.1c-4.2,0-14.3,0.8-20,1.4
			L82,143.3z"/>
		<path d="M68.8,152.4H55.6c-11,0.4-20.2-8.2-20.5-19.2s8.2-20.2,19.2-20.5c0.5,0,0.9,0,1.4,0h13.2V152.4z M55.6,122.2
			c-5.7-0.3-10.5,4.1-10.8,9.8c-0.3,5.7,4.1,10.5,9.8,10.8c0.3,0,0.7,0,1,0h3.7v-20.6H55.6z"/>
	</g>
</g>
</svg>
