<?xml version="1.0" encoding="utf-8"?>
<!-- Generator: Adobe Illustrator 22.1.0, SVG Export Plug-In . SVG Version: 6.00 Build 0)  -->
<svg version="1.1" id="레이어_1" xmlns="http://www.w3.org/2000/svg" xmlns:xlink="http://www.w3.org/1999/xlink" x="0px"
	 y="0px" viewBox="0 0 200 200" style="enable-background:new 0 0 200 200;" xml:space="preserve">
<style type="text/css">
	.st0{fill:none;}
</style>
<symbol  id="새_심볼_10" viewBox="-42 -42 84 84">
	<rect x="-42" y="-42" class="st0" width="84" height="84"/>
</symbol>
<title>q05-3</title>
<g id="레이어_2_1_">
	<g id="레이어_1-2">
		
			<use xlink:href="#새_심볼_10"  width="84" height="84" id="새_심볼_10-3" x="-42" y="-42" transform="matrix(2.381 0 0 2.381 100 100)" style="overflow:visible;"/>
		<polygon points="57.3,38.2 47.8,38.2 47.8,47.8 38.3,47.8 38.3,57.3 47.8,57.3 47.8,66.8 57.3,66.8 57.3,57.3 66.8,57.3 
			66.8,47.8 57.3,47.8 		"/>
		<polygon points="104.8,85.7 95.2,85.7 95.2,95.2 85.7,95.2 85.7,104.8 95.2,104.8 95.2,114.3 104.8,114.3 104.8,104.8 
			114.3,104.8 114.3,95.2 104.8,95.2 		"/>
		<polygon points="152.2,47.8 152.2,38.2 142.7,38.2 142.7,47.8 133.2,47.8 133.2,57.3 142.7,57.3 142.7,66.8 152.2,66.8 
			152.2,57.3 161.8,57.3 161.8,47.8 		"/>
		<polygon points="57.3,133.2 47.8,133.2 47.8,142.7 38.3,142.7 38.3,152.2 47.8,152.2 47.8,161.8 57.3,161.8 57.3,152.2 
			66.8,152.2 66.8,142.7 57.3,142.7 		"/>
		<polygon points="152.2,133.2 142.7,133.2 142.7,142.7 133.2,142.7 133.2,152.2 142.7,152.2 142.7,161.8 152.2,161.8 152.2,152.2 
			161.8,152.2 161.8,142.7 152.2,142.7 		"/>
	</g>
</g>
</svg>
