<?xml version="1.0" encoding="utf-8"?>
<!-- Generator: Adobe Illustrator 22.1.0, SVG Export Plug-In . SVG Version: 6.00 Build 0)  -->
<svg version="1.1" id="레이어_1" xmlns="http://www.w3.org/2000/svg" xmlns:xlink="http://www.w3.org/1999/xlink" x="0px"
	 y="0px" viewBox="0 0 200 200" style="enable-background:new 0 0 200 200;" xml:space="preserve">
<style type="text/css">
	.st0{fill:none;}
</style>
<symbol  id="새_심볼_10" viewBox="-42 -42 84 84">
	<rect x="-42" y="-42" class="st0" width="84" height="84"/>
</symbol>
<title>q05-4</title>
<g id="레이어_2_1_">
	<g id="레이어_1-2">
		
			<use xlink:href="#새_심볼_10"  width="84" height="84" id="새_심볼_10-3" x="-42" y="-42" transform="matrix(2.381 0 0 2.381 100 100)" style="overflow:visible;"/>
		<polygon points="171.4,95.2 117.8,95.2 164.2,68.4 159.5,60.2 113,87 139.8,40.5 131.6,35.8 104.8,82.2 104.8,28.6 95.2,28.6 
			95.2,82.2 68.4,35.8 60.2,40.5 87,87 40.5,60.2 35.8,68.4 82.2,95.2 28.6,95.2 28.6,104.8 82.2,104.8 35.8,131.6 40.5,139.8 
			87,113 60.2,159.5 68.4,164.2 95.2,117.8 95.2,171.4 104.8,171.4 104.8,117.8 131.6,164.2 139.8,159.5 113,113 159.5,139.8 
			164.2,131.6 117.8,104.8 171.4,104.8 		"/>
	</g>
</g>
</svg>
