<?xml version="1.0" encoding="utf-8"?>
<!-- Generator: Adobe Illustrator 22.1.0, SVG Export Plug-In . SVG Version: 6.00 Build 0)  -->
<svg version="1.1" id="레이어_1" xmlns="http://www.w3.org/2000/svg" xmlns:xlink="http://www.w3.org/1999/xlink" x="0px"
	 y="0px" viewBox="0 0 200 200" style="enable-background:new 0 0 200 200;" xml:space="preserve">
<style type="text/css">
	.st0{fill:none;}
</style>
<symbol  id="새_심볼_10" viewBox="-42 -42 84 84">
	<rect x="-42" y="-42" class="st0" width="84" height="84"/>
</symbol>
<title>q06-2</title>
<g id="레이어_2_1_">
	<g id="레이어_1-2">
		
			<use xlink:href="#새_심볼_10"  width="84" height="84" id="새_심볼_10-3" x="-42" y="-42" transform="matrix(2.381 0 0 2.381 100 100)" style="overflow:visible;"/>
		<path d="M147.6,25.1c-15,0-27.2,12.2-27.2,27.2s12.2,27.2,27.2,27.2s27.2-12.2,27.2-27.2C174.8,37.3,162.7,25.2,147.6,25.1z"/>
		<path d="M52.4,176.2c-15.8,0-28.6-12.8-28.6-28.6S36.6,119,52.4,119S81,131.8,81,147.6S68.2,176.2,52.4,176.2z M52.4,128.6
			c-10.5,0-19,8.5-19,19s8.5,19,19,19s19-8.5,19-19S62.9,128.6,52.4,128.6z"/>
	</g>
</g>
</svg>
