<svg xmlns="http://www.w3.org/2000/svg" viewBox="0 0 162 42"><defs><style>.cls-1{fill:#202020;}.cls-2{fill:none;}.cls-3{fill:#231815;}</style></defs><title>btn-start</title><g id="레이어_2" data-name="레이어 2"><g id="레이어_1-2" data-name="레이어 1"><g id="_그룹_" data-name="&lt;그룹&gt;"><path class="cls-1" d="M162,42H120V0h42Zm-40-2h38V2H122Z"/><rect class="cls-2" x="125" y="5" width="32" height="32"/></g><polygon class="cls-1" points="137.09 9.69 148.41 21 137.09 32.31 137.09 9.69"/><path class="cls-1" d="M122,42H0V0H122ZM2,40H120V2H2Z"/><path class="cls-3" d="M36.87,21.39a5.92,5.92,0,0,0,.57-.73,3.39,3.39,0,0,0,.33-.66,2.44,2.44,0,0,0,.15-.66,6.37,6.37,0,0,0,0-.8V15.27h1.1v3.2q0,.44,0,.75a3.09,3.09,0,0,0,.12.62,2.52,2.52,0,0,0,.27.58,5.28,5.28,0,0,0,.48.63c.3.35.66.74,1.1,1.18s.94.92,1.51,1.43l-.69.72c-.48-.45-.93-.88-1.33-1.29s-.76-.76-1.06-1.08-.44-.47-.62-.69a2.07,2.07,0,0,1-.34-.48h0a.84.84,0,0,1-.12.23c-.07.1-.16.22-.27.35l-.33.41c-.12.15-.24.28-.35.4l-.47.5-.59.6-.66.64c-.23.22-.46.43-.68.62l-.7-.74c.5-.44.95-.86,1.37-1.26S36.52,21.79,36.87,21.39ZM45.54,28H44.47V14.28h1.07Z"/><path class="cls-3" d="M52.11,19a1.67,1.67,0,0,1-.37.51c-.22.23-.48.48-.8.76-.13.12-.29.26-.48.41l-.58.46-.62.48c-.2.16-.39.3-.56.42l-.64-.75c.45-.32.9-.66,1.35-1s.86-.71,1.23-1.07a4.84,4.84,0,0,0,.45-.51,1.94,1.94,0,0,0,.27-.48,2.13,2.13,0,0,0,.14-.51,4.75,4.75,0,0,0,0-.56V16H48.45v-.91h7.11V16h-3v1.1a5,5,0,0,0,0,.58,1.78,1.78,0,0,0,.14.5,2.29,2.29,0,0,0,.33.48,6.34,6.34,0,0,0,.58.57c.24.2.56.44,1,.73s.8.58,1.23.87l-.62.74c-.31-.21-.62-.44-.94-.68l-.83-.63c-.35-.29-.65-.55-.91-.78a1.59,1.59,0,0,1-.44-.49Zm-2.06,4h8.6V28.1h-1V24H50.05Zm8.6-5.33h2.1v.93h-2.1v3.59h-1V14.28h1Z"/><path class="cls-3" d="M65.05,16.44V14.36h1.07v2.08h3.42v.93h-8v-.93Zm.53,8.4a3.5,3.5,0,0,1-1.38-.25,3.28,3.28,0,0,1-1-.64,3,3,0,0,1-.63-.91,2.67,2.67,0,0,1-.21-1V21.2a2.72,2.72,0,0,1,.21-1,3,3,0,0,1,.63-.91,3.32,3.32,0,0,1,1-.66,4.09,4.09,0,0,1,2.76,0,3.27,3.27,0,0,1,1,.66,3,3,0,0,1,.63.91,2.73,2.73,0,0,1,.22,1V22a2.69,2.69,0,0,1-.22,1A3,3,0,0,1,68,24a3.23,3.23,0,0,1-1,.64A3.5,3.5,0,0,1,65.58,24.84Zm0-5.55a2.75,2.75,0,0,0-.93.15,2,2,0,0,0-.7.42,1.69,1.69,0,0,0-.45.64,1.89,1.89,0,0,0-.16.79v.63a1.85,1.85,0,0,0,.16.78,1.69,1.69,0,0,0,.45.64,2,2,0,0,0,.7.42,2.75,2.75,0,0,0,.93.15,2.69,2.69,0,0,0,.92-.15,2,2,0,0,0,.7-.42,1.69,1.69,0,0,0,.45-.64,1.85,1.85,0,0,0,.16-.78v-.63a1.89,1.89,0,0,0-.16-.79,1.69,1.69,0,0,0-.45-.64,2,2,0,0,0-.7-.42A2.69,2.69,0,0,0,65.58,19.29Zm6.63.6h2.28v.95H72.21V28H71.14V14.28h1.07Z"/><path class="cls-3" d="M75.88,24c1.15-.66,2.07-1.23,2.75-1.71A8,8,0,0,0,80.17,21a3.1,3.1,0,0,0,.68-1.25A5.85,5.85,0,0,0,81,18.26V16.53H76v-1h6v2.7A9.49,9.49,0,0,1,82,19.52a4.08,4.08,0,0,1-.29,1.05,4.18,4.18,0,0,1-.61,1,7.92,7.92,0,0,1-1,1,18.07,18.07,0,0,1-1.52,1.09c-.59.38-1.29.81-2.1,1.28Zm10.58,4H85.39V14.28h1.07Z"/></g></g></svg>