<svg xmlns="http://www.w3.org/2000/svg" viewBox="0 0 162 42"><defs><style>.cls-1{fill:#202020;}.cls-2{fill:none;}.cls-3{fill:#231815;}</style></defs><title>btn-enroll</title><g id="레이어_2" data-name="레이어 2"><g id="레이어_1-2" data-name="레이어 1"><g id="_그룹_" data-name="&lt;그룹&gt;"><path class="cls-1" d="M162,42H120V0h42Zm-40-2h38V2H122Z"/><rect class="cls-2" x="125" y="5" width="32" height="32"/></g><polygon class="cls-1" points="137.09 9.69 148.41 21 137.09 32.31 137.09 9.69"/><path class="cls-1" d="M122,42H0V0H122ZM2,40H120V2H2Z"/><path class="cls-3" d="M46.83,22.06V23H34.23v-.91Zm-1.95-5H37.17v2.62H45v.92H36.13V16.1h8.75Zm-4.35,7.26a8.46,8.46,0,0,1,1.61.15,5.17,5.17,0,0,1,1.36.45,3,3,0,0,1,.93.76,1.62,1.62,0,0,1,.36,1v.51a1.6,1.6,0,0,1-.36,1,3,3,0,0,1-.93.76,5.17,5.17,0,0,1-1.36.46,8.77,8.77,0,0,1-3.23,0A5.1,5.1,0,0,1,37.56,29a2.88,2.88,0,0,1-.94-.76,1.59,1.59,0,0,1-.35-1v-.51a1.62,1.62,0,0,1,.35-1.05,2.74,2.74,0,0,1,.94-.75,5.1,5.1,0,0,1,1.35-.45A8.49,8.49,0,0,1,40.53,24.28Zm0,4.41a6.64,6.64,0,0,0,1.18-.11,4.73,4.73,0,0,0,1-.3,2.12,2.12,0,0,0,.74-.49.94.94,0,0,0,.28-.66v-.39a1,1,0,0,0-.28-.67,2.12,2.12,0,0,0-.74-.49,4.73,4.73,0,0,0-1-.3,6.64,6.64,0,0,0-1.18-.1,6.78,6.78,0,0,0-1.2.1,4.8,4.8,0,0,0-1,.3,2.12,2.12,0,0,0-.74.49,1,1,0,0,0-.27.67v.39a.93.93,0,0,0,.27.66,2.12,2.12,0,0,0,.74.49,4.8,4.8,0,0,0,1,.3A6.78,6.78,0,0,0,40.53,28.69Z"/><path class="cls-3" d="M49.72,16h8.81v3.19H50.77v1.44h8v.89H54.7v1.42h5.77v.9H47.88v-.9h5.77V21.52H49.77v-3.2h7.75V16.88h-7.8Zm-.24,9.19h9.18v4.16h-1V26.11H49.48Z"/><path class="cls-3" d="M65.05,17.68V15.59h1.07v2.09h3.42v.93h-8v-.93Zm.53,8.4a3.65,3.65,0,0,1-1.38-.25,3.19,3.19,0,0,1-1-.65,2.82,2.82,0,0,1-.63-.9,2.72,2.72,0,0,1-.21-1v-.81a2.67,2.67,0,0,1,.21-1,2.9,2.9,0,0,1,1.65-1.57,3.47,3.47,0,0,1,1.38-.25,3.54,3.54,0,0,1,1.38.25,3.08,3.08,0,0,1,1,.65,3,3,0,0,1,.63.92,2.69,2.69,0,0,1,.22,1v.81a2.73,2.73,0,0,1-.22,1,2.82,2.82,0,0,1-.63.9,3.25,3.25,0,0,1-1,.65A3.73,3.73,0,0,1,65.58,26.08Zm0-5.55a2.75,2.75,0,0,0-.93.15,2,2,0,0,0-.7.42,1.74,1.74,0,0,0-.45.63,1.92,1.92,0,0,0-.16.79v.63a1.92,1.92,0,0,0,.16.79,1.78,1.78,0,0,0,.45.64,2,2,0,0,0,.7.42,2.75,2.75,0,0,0,.93.15A2.69,2.69,0,0,0,66.5,25a2,2,0,0,0,.7-.42,1.78,1.78,0,0,0,.45-.64,1.92,1.92,0,0,0,.16-.79v-.63a1.92,1.92,0,0,0-.16-.79,1.74,1.74,0,0,0-.45-.63,2,2,0,0,0-.7-.42A2.69,2.69,0,0,0,65.58,20.53Zm6.63.6h2.28v.94H72.21v7.16H71.14V15.52h1.07Z"/><path class="cls-3" d="M75.88,25.25C77,24.59,78,24,78.63,23.55a8.37,8.37,0,0,0,1.54-1.34A3,3,0,0,0,80.85,21,5.85,5.85,0,0,0,81,19.49V17.77H76v-1h6v2.7A9.33,9.33,0,0,1,82,20.75a4.08,4.08,0,0,1-.29,1.05,4.18,4.18,0,0,1-.61,1,7.94,7.94,0,0,1-1,1,16.11,16.11,0,0,1-1.52,1.08c-.59.39-1.3.82-2.1,1.29Zm10.58,4H85.39V15.52h1.07Z"/></g></g></svg>