<?xml version="1.0" encoding="utf-8"?>
<!-- Generator: Adobe Illustrator 22.1.0, SVG Export Plug-In . SVG Version: 6.00 Build 0)  -->
<svg version="1.1" id="레이어_1" xmlns="http://www.w3.org/2000/svg" xmlns:xlink="http://www.w3.org/1999/xlink" x="0px"
	 y="0px" viewBox="0 0 84 84" style="enable-background:new 0 0 84 84;" xml:space="preserve">
<title>c-3</title>
<g id="레이어_2_1_">
	<g id="레이어_1-2">
		<path d="M30.3,62l-0.1-39.2h9.2c8.7,0,13.9,0.9,13.9,9.1c0,4.9-2,8.1-7,8.9V41c4.4,0.1,7,1.8,7,7.3v8.2c0,1.9,0.4,3.8,1.4,5.5
			h-9.2c-0.9-1.7-1.4-3.5-1.3-5.5v-8.3c0-2.8-1.7-4.1-3.3-4.1h-1.5V62H30.3z M39.4,38.5c4.1,0,4.8-1.4,4.8-5.1s-0.6-5-4.8-5
			L39.4,38.5z"/>
	</g>
</g>
</svg>
