<?xml version="1.0" encoding="utf-8"?>
<!-- Generator: Adobe Illustrator 22.1.0, SVG Export Plug-In . SVG Version: 6.00 Build 0)  -->
<svg version="1.1" id="레이어_1" xmlns="http://www.w3.org/2000/svg" xmlns:xlink="http://www.w3.org/1999/xlink" x="0px"
	 y="0px" viewBox="0 0 249.8 168" style="enable-background:new 0 0 249.8 168;" xml:space="preserve">
<style type="text/css">
	.st0{fill:#FFFFFF;}
</style>
<title>logo-full-w-line</title>
<g id="새_심볼_13_2_">
</g>
<g id="새_심볼_13_1_">
</g>
<g id="새_심볼_13-7">
</g>
<g id="새_심볼_13">
</g>
<g id="새_심볼_13_3_">
</g>
<path class="st0" d="M32.9,29.3v-6.5h23.9v6.5h-7v36.2h-10l0.1-36.2H32.9z"/>
<path class="st0" d="M137.5,55.6c0,9.8-6,12.5-12.6,12.5s-12.6-2.7-12.6-12.5V36.2c0-9.8,6-12.5,12.6-12.5s12.6,2.7,12.6,12.5V55.6z
	 M122.3,57.9c0,1.7,0.5,3.4,2.7,3.4s2.6-1.6,2.6-3.4v-24c0-1.7-0.6-3.4-2.7-3.4s-2.6,1.6-2.6,3.4V57.9z"/>
<path class="st0" d="M34.2,147.3h-8l-0.1-42.7h14.6L45,135h0.1l4.2-30.4h14.3l0.1,42.7h-9v-36.5h-0.1l-5.8,36.5H40l-5.8-36.5h-0.1
	L34.2,147.3z"/>
<path class="st0" d="M112.3,104.5h10.1c8.5,0,15.1,0.1,15.1,10.4c0,4.7-1.4,9-7.1,9.6v0.4c6.4,0,7.1,4.7,7.1,10.2
	c0,11.8-4.6,12.2-15.1,12.2h-10.1V104.5z M122.3,121.8c3.1-0.2,5.3,0.8,5.3-5.6c0-4.2-0.4-5.9-5.3-5.6V121.8z M122.3,141.1
	c5.3,0.5,5.3-2.6,5.3-7c0-6.1-1.1-6.1-5.3-6.1V141.1z"/>
<path class="st0" d="M207.5,119.8v-6c0-2.1-0.7-3.3-2.6-3.3c-2.2,0-2.6,1.2-2.6,3.3c0,7.2,15.3,9.3,15.3,22.5
	c0,8-4.3,11.8-12.6,11.8c-6.4,0-12.6-2.1-12.6-9.5v-7.9h10v7.4c0,2.5,0.8,3.2,2.6,3.2c1.6,0,2.6-0.7,2.6-3.3
	c0-9.7-15.3-9.8-15.3-23.6c0-7.7,5.1-10.7,12.8-10.7c6.7,0,12.4,2.3,12.4,9.4v6.7H207.5z"/>
<g id="새_심볼_13-14">
</g>
<g id="새_심볼_13-17">
</g>
<path class="st0" d="M2.6,2v164.4h244.3V2H2.6z M80.9,88v72h-72V88H80.9z M8.9,80V8h72v72H8.9z M160.9,88v72h-72V88H160.9z M88.9,80
	V8h72v72H88.9z M168.9,74.5V8h66.5L168.9,74.5z M240.9,13.5V80h-66.5L240.9,13.5z M240.9,88v72h-72V88H240.9z"/>
</svg>
