<svg xmlns="http://www.w3.org/2000/svg" viewBox="0 0 80 80"><defs><style>.cls-1{fill:none;}</style></defs><title>logo-02-fill</title><g id="레이어_2" data-name="레이어 2"><g id="레이어_1-2" data-name="레이어 1"><rect class="cls-1" width="80" height="80"/><path d="M40,26.51c-2.1,0-2.64,1.62-2.64,3.36l0,24c0,1.74.54,3.36,2.64,3.36s2.64-1.63,2.64-3.37l0-24C42.62,28.13,42.08,26.51,40,26.51Z"/><path d="M4,4V76H76V4ZM40,64.07c-6.6,0-12.6-2.68-12.62-12.46l0-19.44c0-9.78,6-12.49,12.59-12.5s12.6,2.68,12.61,12.46l0,19.44C52.63,61.35,46.63,64.06,40,64.07Z"/></g></g></svg>