<svg xmlns="http://www.w3.org/2000/svg" viewBox="0 0 80 80"><defs><style>.cls-1{fill:none;}</style></defs><title>logo-05-fill</title><g id="레이어_2" data-name="레이어 2"><g id="레이어_1-2" data-name="레이어 1"><rect class="cls-1" width="80" height="80"/><path d="M4,4V76H76V4ZM40,64.07c-6.36,0-12.54-2.14-12.55-9.52V46.63l10,0V54c0,2.52.78,3.24,2.64,3.24,1.62,0,2.64-.73,2.64-3.25,0-9.66-15.26-9.81-15.28-23.61,0-7.74,5.09-10.69,12.77-10.7,6.72,0,12.42,2.26,12.43,9.4v6.72h-10v-6c0-2.1-.66-3.3-2.64-3.3-2.16,0-2.64,1.2-2.64,3.3,0,7.2,15.25,9.28,15.27,22.48C52.63,60.33,48.31,64.06,40,64.07Z"/></g></g></svg>