<svg xmlns="http://www.w3.org/2000/svg" viewBox="0 0 80 80"><defs><style>.cls-1{fill:none;}</style></defs><title>logo-04-fill</title><g id="레이어_2" data-name="레이어 2"><g id="레이어_1-2" data-name="레이어 1"><rect class="cls-1" width="80" height="80"/><path d="M37.36,44l0,13.14c5.34.47,5.28-2.59,5.27-7C42.64,44,41.56,44,37.36,44Z"/><path d="M4,4V76H76V4ZM37.51,63.23l-10.08,0-.06-42.72,10.08,0c8.46,0,15.12.1,15.13,10.36,0,4.74-1.37,9-7.06,9.55v.42c6.36,0,7.08,4.67,7.09,10.19C52.63,62.79,48.07,63.22,37.51,63.23Z"/><path d="M42.62,32.26c0-4.19-.37-5.93-5.29-5.63l0,11.22C40.47,37.67,42.63,38.68,42.62,32.26Z"/></g></g></svg>