<svg xmlns="http://www.w3.org/2000/svg" xmlns:xlink="http://www.w3.org/1999/xlink" viewBox="0 0 84 84"><defs><style>.cls-1{fill:none;}.cls-2{stroke:#fff;stroke-miterlimit:10;stroke-width:2px;}</style><symbol id="새_심볼_10" data-name="새 심볼 10" viewBox="0 0 84 84"><rect class="cls-1" width="84" height="84"/></symbol><symbol id="새_심볼_7" data-name="새 심볼 7" viewBox="0 0 14.54 13.59"><circle cx="7.12" cy="6.8" r="6"/><line class="cls-2" y1="6.8" x2="14.54" y2="6.8"/><line class="cls-2" x1="3.64" y1="13.09" x2="10.91" y2="0.5"/><line class="cls-2" x1="10.91" y1="13.09" x2="3.64" y2="0.5"/></symbol></defs><title>q01-1</title><g id="레이어_2" data-name="레이어 2"><g id="레이어_1-2" data-name="레이어 1"><use id="새_심볼_10-3" data-name="새 심볼 10" width="84" height="84" xlink:href="#새_심볼_10"/><rect x="40" width="4" height="84"/><use id="새_심볼_7-3" data-name="새 심볼 7" width="14.54" height="13.59" transform="translate(54.88 15.21)" xlink:href="#새_심볼_7"/><use id="새_심볼_7-6" data-name="새 심볼 7" width="14.54" height="13.59" transform="translate(54.88 55.21)" xlink:href="#새_심볼_7"/><use id="새_심볼_7-9" data-name="새 심볼 7" width="14.54" height="13.59" transform="translate(14.62 35.21)" xlink:href="#새_심볼_7"/><use id="새_심볼_7-12" data-name="새 심볼 7" width="14.54" height="13.59" transform="translate(24.73 7.43)" xlink:href="#새_심볼_7"/><path d="M44,42H40c0-10.3-9.5-18-18-18V20C32.38,20,44,29.41,44,42Z"/><path d="M44,62H40c0-10.38,9.41-22,22-22v4C51.86,44,44,53.68,44,62Z"/></g></g></svg>