<?xml version="1.0" encoding="utf-8"?>
<!-- Generator: Adobe Illustrator 22.1.0, SVG Export Plug-In . SVG Version: 6.00 Build 0)  -->
<svg version="1.1" id="레이어_1" xmlns="http://www.w3.org/2000/svg" xmlns:xlink="http://www.w3.org/1999/xlink" x="0px"
	 y="0px" viewBox="0 0 84 84" style="enable-background:new 0 0 84 84;" xml:space="preserve">
<title>q01-04</title>
<rect x="29.4" y="9.2" width="4.2" height="4.2"/>
<rect x="8.4" y="9.2" width="4.2" height="4.2"/>
<rect x="8.4" y="29.6" width="4.2" height="4.2"/>
<rect x="50.4" y="29.6" width="4.2" height="4.2"/>
<rect x="29.4" y="50.6" width="4.2" height="4.2"/>
<rect x="71.4" y="9.2" width="4.2" height="4.2"/>
<rect x="71.4" y="29.6" width="4.2" height="4.2"/>
<path d="M61.5,40.8l3,3l-21,21c-1.2-0.6-2.4-1.2-3.6-1.7v-20L19.5,22.7l3-3l17.4,17.4V0h4.2v16.2L60.3,0h5.9L44.1,22.1v36.1
	L61.5,40.8z"/>
<path d="M84,71.4v4.2H63c-10.3,0-15.7-2.6-20.9-5.2S31.7,65.3,21,65.3H0v-4.2h21c8.9,0,14.4,1.6,18.9,3.6c0.8,0.4,1.7,0.7,2.4,1.1
	l1.6,0.8c5,2.4,9.7,4.8,19,4.8H84z"/>
</svg>
