<svg xmlns="http://www.w3.org/2000/svg" xmlns:xlink="http://www.w3.org/1999/xlink" viewBox="0 0 84 84"><defs><style>.cls-1{fill:none;}</style><symbol id="새_심볼_10" data-name="새 심볼 10" viewBox="0 0 84 84"><rect class="cls-1" width="84" height="84"/></symbol></defs><title>q02-2</title><g id="레이어_2" data-name="레이어 2"><g id="레이어_1-2" data-name="레이어 1"><use id="새_심볼_10-3" data-name="새 심볼 10" width="84" height="84" transform="translate(0 0)" xlink:href="#새_심볼_10"/><path d="M62,24H24.15c.6,4.71,3.52,16,17.85,16H84v4H63.85C63.2,49.42,59.8,64,42,64H24.15c.6,4.71,3.52,16,17.85,16H84v4H42C24.2,84,20.8,69.42,20.15,64H0V60H42c14.33,0,17.25-11.29,17.85-16H42C24.2,44,20.8,29.42,20.15,24H0V20H62C79.79,20,80,2.74,80,2V0h4V2C84,2.22,83.75,24,62,24Z"/></g></g></svg>