<svg xmlns="http://www.w3.org/2000/svg" xmlns:xlink="http://www.w3.org/1999/xlink" viewBox="0 0 84 84"><defs><style>.cls-1{fill:none;}</style><symbol id="새_심볼_10" data-name="새 심볼 10" viewBox="0 0 84 84"><rect class="cls-1" width="84" height="84"/></symbol></defs><title>q02-4</title><g id="레이어_2" data-name="레이어 2"><g id="레이어_1-2" data-name="레이어 1"><use id="새_심볼_10-3" data-name="새 심볼 10" width="84" height="84" transform="translate(0 0)" xlink:href="#새_심볼_10"/><polygon points="57 54 57 50 54 50 54 47 50 47 50 50 47 50 47 54 50 54 50 57 54 57 54 54 57 54"/><polygon points="37 54 37 50 34 50 34 47 30 47 30 50 27 50 27 54 30 54 30 57 34 57 34 54 37 54"/><polygon points="77 50 74 50 74 47 70 47 70 50 67 50 67 54 70 54 70 57 74 57 74 54 77 54 77 50"/><polygon points="44 67 40 67 40 70 37 70 37 74 40 74 40 77 44 77 44 74 47 74 47 70 44 70 44 67"/><polygon points="64 67 60 67 60 70 57 70 57 74 60 74 60 77 64 77 64 74 67 74 67 70 64 70 64 67"/><path d="M80,0V2c0,.74-.21,18-18,18H0v4H39.85C39.28,28.71,36.39,40,22,40H0v4H22c17.8,0,21.2-14.58,21.85-20H62C83.75,24,84,2.22,84,2V0Z"/></g></g></svg>