<svg xmlns="http://www.w3.org/2000/svg" xmlns:xlink="http://www.w3.org/1999/xlink" viewBox="0 0 84 84"><defs><style>.cls-1{fill:none;}</style><symbol id="새_심볼_10" data-name="새 심볼 10" viewBox="0 0 84 84"><rect class="cls-1" width="84" height="84"/></symbol></defs><title>q03-4</title><g id="레이어_2" data-name="레이어 2"><g id="레이어_1-2" data-name="레이어 1"><use id="새_심볼_10-3" data-name="새 심볼 10" width="84" height="84" xlink:href="#새_심볼_10"/><path d="M62,68c-4.3,0-6.36-1.65-8.75-3.56C50.65,62.36,47.7,60,42,60s-8.65,2.36-11.25,4.44C28.36,66.35,26.3,68,22,68s-6.36-1.65-8.75-3.56C10.65,62.36,7.7,60,2,60v4c4.3,0,6.36,1.65,8.75,3.56C13.35,69.64,16.3,72,22,72s8.65-2.36,11.25-4.44C35.64,65.65,37.7,64,42,64s6.36,1.65,8.75,3.56C53.35,69.64,56.3,72,62,72s8.65-2.36,11.25-4.44C75.64,65.65,77.7,64,82,64V60c-5.7,0-8.65,2.36-11.25,4.44C68.36,66.35,66.3,68,62,68Z"/><rect x="2" y="19.97" width="20" height="4"/><rect x="48.67" y="13.9" width="13.33" height="4"/><rect x="51.92" y="8.4" width="6.83" height="4"/><path d="M63.74,40l-2.8-20H49.73L46.92,40H42A22,22,0,0,0,20,62h4A18,18,0,0,1,42,44H82V40ZM53.21,24h4.25L59.7,40H51Z"/></g></g></svg>