<svg xmlns="http://www.w3.org/2000/svg" xmlns:xlink="http://www.w3.org/1999/xlink" viewBox="0 0 84 84"><defs><style>.cls-1{fill:none;}</style><symbol id="새_심볼_10" data-name="새 심볼 10" viewBox="0 0 84 84"><rect class="cls-1" width="84" height="84"/></symbol></defs><title>q03-2</title><g id="레이어_2" data-name="레이어 2"><g id="레이어_1-2" data-name="레이어 1"><use id="새_심볼_10-3" data-name="새 심볼 10" width="84" height="84" xlink:href="#새_심볼_10"/><path d="M82,59.8H70.67V19.86H59v-9.5H25v9.5H13.33V59.8H2v4H13.33V67H25v3.49H59V67H70.67V63.8H82ZM17.33,63V23.86H25V63ZM36.5,66.47V54.39h3.21V66.47Zm18.5,0H43.71V50.39H32.5V66.47H29V14.36H55ZM66.67,63H59V23.86h7.67Z"/><polygon points="40.82 26.22 43.77 26.22 43.77 22.7 47.3 22.7 47.3 19.75 43.77 19.75 43.77 16.22 40.82 16.22 40.82 19.75 37.3 19.75 37.3 22.7 40.82 22.7 40.82 26.22"/><rect x="32" y="31.48" width="20" height="4"/><rect x="32" y="38.73" width="20" height="4"/></g></g></svg>