<svg xmlns="http://www.w3.org/2000/svg" xmlns:xlink="http://www.w3.org/1999/xlink" viewBox="0 0 84 84"><defs><style>.cls-1{fill:none;}</style><symbol id="새_심볼_10" data-name="새 심볼 10" viewBox="0 0 84 84"><rect class="cls-1" width="84" height="84"/></symbol></defs><title>q04-4</title><metadata><?xpacket begin="﻿" id="W5M0MpCehiHzreSzNTczkc9d"?>
<x:xmpmeta xmlns:x="adobe:ns:meta/" x:xmptk="Adobe XMP Core 5.6-c143 79.161356, 2017/09/07-01:11:22        ">
   <rdf:RDF xmlns:rdf="http://www.w3.org/1999/02/22-rdf-syntax-ns#">
      <rdf:Description rdf:about=""
            xmlns:dc="http://purl.org/dc/elements/1.1/"
            xmlns:xmp="http://ns.adobe.com/xap/1.0/"
            xmlns:xmpMM="http://ns.adobe.com/xap/1.0/mm/"
            xmlns:stEvt="http://ns.adobe.com/xap/1.0/sType/ResourceEvent#">
         <dc:title>
            <rdf:Alt>
               <rdf:li xml:lang="x-default">q04-4</rdf:li>
            </rdf:Alt>
         </dc:title>
         <xmp:Rating>4</xmp:Rating>
         <xmp:MetadataDate>2018-10-09T02:22:09+09:00</xmp:MetadataDate>
         <xmpMM:InstanceID>xmp.iid:f01bb970-831d-d042-a977-7a77cdc76c12</xmpMM:InstanceID>
         <xmpMM:DocumentID>xmp.did:f01bb970-831d-d042-a977-7a77cdc76c12</xmpMM:DocumentID>
         <xmpMM:OriginalDocumentID>xmp.did:f01bb970-831d-d042-a977-7a77cdc76c12</xmpMM:OriginalDocumentID>
         <xmpMM:History>
            <rdf:Seq>
               <rdf:li>
                  <rdf:Description>
                     <stEvt:action>saved</stEvt:action>
                     <stEvt:instanceID>xmp.iid:f01bb970-831d-d042-a977-7a77cdc76c12</stEvt:instanceID>
                     <stEvt:when>2018-10-09T02:22:09+09:00</stEvt:when>
                     <stEvt:softwareAgent>Adobe Bridge CC 2018 (Windows)</stEvt:softwareAgent>
                     <stEvt:changed>/metadata</stEvt:changed>
                  </rdf:Description>
               </rdf:li>
            </rdf:Seq>
         </xmpMM:History>
      </rdf:Description>
   </rdf:RDF>
</x:xmpmeta>
                                                                                                    
                                                                                                    
                                                                                                    
                                                                                                    
                                                                                                    
                                                                                                    
                                                                                                    
                                                                                                    
                                                                                                    
                                                                                                    
                                                                                                    
                                                                                                    
                                                                                                    
                                                                                                    
                                                                                                    
                                                                                                    
                                                                                                    
                                                                                                    
                                                                                                    
                                                                                                    
                           
<?xpacket end="w"?></metadata>
<g id="레이어_2" data-name="레이어 2"><g id="레이어_1-2" data-name="레이어 1"><use id="새_심볼_10-3" data-name="새 심볼 10" width="84" height="84" xlink:href="#새_심볼_10"/><path d="M62.86,37.42c-3.61,0-10.31-.73-10.59-.77l-1.78-.19,0-16.27L52.26,20c.32,0,7.88-.77,10.6-.77,4.75,0,10.49,4.06,10.49,9.09S67.61,37.42,62.86,37.42Zm-8.38-4.56c2.24.22,6.07.56,8.38.56,2.71,0,6.49-2.56,6.49-5.09s-3.78-5.09-6.49-5.09c-1.76,0-6,.36-8.4.58Z"/><path d="M48.94,36.67H43.39a8.34,8.34,0,0,1,0-16.67h5.55ZM43.39,24a4.34,4.34,0,0,0,0,8.67h1.55V24Z"/><path d="M42.82,64.76c-3.62,0-10.31-.74-10.6-.77l-1.77-.2L30.4,47.52l1.81-.18c.32,0,7.88-.76,10.61-.76,4.75,0,10.48,4.05,10.48,9.09S47.57,64.76,42.82,64.76ZM34.44,60.2c2.24.22,6.07.56,8.38.56,2.71,0,6.48-2.57,6.48-5.09s-3.77-5.09-6.48-5.09c-1.76,0-6,.35-8.41.57Z"/><path d="M28.9,64H23.35a8.34,8.34,0,1,1,0-16.67H28.9ZM23.35,51.33a4.34,4.34,0,1,0,0,8.67H24.9V51.33Z"/></g></g></svg>