<svg xmlns="http://www.w3.org/2000/svg" xmlns:xlink="http://www.w3.org/1999/xlink" viewBox="0 0 84 84"><defs><style>.cls-1{fill:none;}</style><symbol id="새_심볼_10" data-name="새 심볼 10" viewBox="0 0 84 84"><rect class="cls-1" width="84" height="84"/></symbol></defs><title>q05-3</title><metadata><?xpacket begin="﻿" id="W5M0MpCehiHzreSzNTczkc9d"?>
<x:xmpmeta xmlns:x="adobe:ns:meta/" x:xmptk="Adobe XMP Core 5.6-c143 79.161356, 2017/09/07-01:11:22        ">
   <rdf:RDF xmlns:rdf="http://www.w3.org/1999/02/22-rdf-syntax-ns#">
      <rdf:Description rdf:about=""
            xmlns:dc="http://purl.org/dc/elements/1.1/"
            xmlns:xmp="http://ns.adobe.com/xap/1.0/"
            xmlns:xmpMM="http://ns.adobe.com/xap/1.0/mm/"
            xmlns:stEvt="http://ns.adobe.com/xap/1.0/sType/ResourceEvent#">
         <dc:title>
            <rdf:Alt>
               <rdf:li xml:lang="x-default">q05-3</rdf:li>
            </rdf:Alt>
         </dc:title>
         <xmp:Rating>4</xmp:Rating>
         <xmp:MetadataDate>2018-10-09T02:22:09+09:00</xmp:MetadataDate>
         <xmpMM:InstanceID>xmp.iid:793d4755-face-ea47-b116-712ff2ed2113</xmpMM:InstanceID>
         <xmpMM:DocumentID>xmp.did:793d4755-face-ea47-b116-712ff2ed2113</xmpMM:DocumentID>
         <xmpMM:OriginalDocumentID>xmp.did:793d4755-face-ea47-b116-712ff2ed2113</xmpMM:OriginalDocumentID>
         <xmpMM:History>
            <rdf:Seq>
               <rdf:li>
                  <rdf:Description>
                     <stEvt:action>saved</stEvt:action>
                     <stEvt:instanceID>xmp.iid:793d4755-face-ea47-b116-712ff2ed2113</stEvt:instanceID>
                     <stEvt:when>2018-10-09T02:22:09+09:00</stEvt:when>
                     <stEvt:softwareAgent>Adobe Bridge CC 2018 (Windows)</stEvt:softwareAgent>
                     <stEvt:changed>/metadata</stEvt:changed>
                  </rdf:Description>
               </rdf:li>
            </rdf:Seq>
         </xmpMM:History>
      </rdf:Description>
   </rdf:RDF>
</x:xmpmeta>
                                                                                                    
                                                                                                    
                                                                                                    
                                                                                                    
                                                                                                    
                                                                                                    
                                                                                                    
                                                                                                    
                                                                                                    
                                                                                                    
                                                                                                    
                                                                                                    
                                                                                                    
                                                                                                    
                                                                                                    
                                                                                                    
                                                                                                    
                                                                                                    
                                                                                                    
                                                                                                    
                           
<?xpacket end="w"?></metadata>
<g id="레이어_2" data-name="레이어 2"><g id="레이어_1-2" data-name="레이어 1"><use id="새_심볼_10-3" data-name="새 심볼 10" width="84" height="84" xlink:href="#새_심볼_10"/><polygon points="24.07 16.06 20.07 16.06 20.07 20.06 16.07 20.06 16.07 24.06 20.07 24.06 20.07 28.06 24.07 28.06 24.07 24.06 28.07 24.06 28.07 20.06 24.07 20.06 24.07 16.06"/><polygon points="44 36 40 36 40 40 36 40 36 44 40 44 40 48 44 48 44 44 48 44 48 40 44 40 44 36"/><polygon points="63.94 20.06 63.94 16.06 59.94 16.06 59.94 20.06 55.94 20.06 55.94 24.06 59.94 24.06 59.94 28.06 63.94 28.06 63.94 24.06 67.94 24.06 67.94 20.06 63.94 20.06"/><polygon points="24.07 55.94 20.07 55.94 20.07 59.94 16.07 59.94 16.07 63.94 20.07 63.94 20.07 67.94 24.07 67.94 24.07 63.94 28.07 63.94 28.07 59.94 24.07 59.94 24.07 55.94"/><polygon points="63.94 55.94 59.94 55.94 59.94 59.94 55.94 59.94 55.94 63.94 59.94 63.94 59.94 67.94 63.94 67.94 63.94 63.94 67.94 63.94 67.94 59.94 63.94 59.94 63.94 55.94"/></g></g></svg>